<?xml version="1.0" encoding="utf-8" standalone="no"?>
<!DOCTYPE svg PUBLIC "-//W3C//DTD SVG 1.1//EN"
  "http://www.w3.org/Graphics/SVG/1.1/DTD/svg11.dtd">
<svg xmlns:xlink="http://www.w3.org/1999/xlink" width="574.077902pt" height="253.810781pt" viewBox="0 0 574.077902 253.810781" xmlns="http://www.w3.org/2000/svg" version="1.1">
 <metadata>
  <rdf:RDF xmlns:dc="http://purl.org/dc/elements/1.1/" xmlns:cc="http://creativecommons.org/ns#" xmlns:rdf="http://www.w3.org/1999/02/22-rdf-syntax-ns#">
   <cc:Work>
    <dc:type rdf:resource="http://purl.org/dc/dcmitype/StillImage"/>
    <dc:date>2026-05-18T15:43:10.292095</dc:date>
    <dc:format>image/svg+xml</dc:format>
    <dc:creator>
     <cc:Agent>
      <dc:title>Matplotlib v3.9.4, https://matplotlib.org/</dc:title>
     </cc:Agent>
    </dc:creator>
   </cc:Work>
  </rdf:RDF>
 </metadata>
 <defs>
  <style type="text/css">*{stroke-linejoin: round; stroke-linecap: butt}</style>
 </defs>
 <g id="figure_1">
  <g id="patch_1">
   <path d="M 0 253.810781 
L 574.077902 253.810781 
L 574.077902 -0 
L 0 -0 
z
" style="fill: #ffffff"/>
  </g>
  <g id="axes_1">
   <g id="patch_2">
    <path d="M 36.447031 222.64 
L 295.967816 222.64 
L 295.967816 38.04 
L 36.447031 38.04 
z
" style="fill: #ffffff"/>
   </g>
   <g id="matplotlib.axis_1">
    <g id="xtick_1">
     <g id="line2d_1">
      <defs>
       <path id="m30ae036bf8" d="M 0 0 
L 0 3.5 
" style="stroke: #000000; stroke-width: 0.6"/>
      </defs>
      <g>
       <use xlink:href="#m30ae036bf8" x="48.243431" y="222.64" style="stroke: #000000; stroke-width: 0.6"/>
      </g>
     </g>
     <g id="text_1">
      <text style="font: 7px 'Arial', 'Helvetica', 'DejaVu Sans', sans-serif; text-anchor: middle" x="48.243431" y="234.650469" transform="rotate(-0 48.243431 234.650469)">0</text>
     </g>
    </g>
    <g id="xtick_2">
     <g id="line2d_2">
      <g>
       <use xlink:href="#m30ae036bf8" x="107.225427" y="222.64" style="stroke: #000000; stroke-width: 0.6"/>
      </g>
     </g>
     <g id="text_2">
      <text style="font: 7px 'Arial', 'Helvetica', 'DejaVu Sans', sans-serif; text-anchor: middle" x="107.225427" y="234.650469" transform="rotate(-0 107.225427 234.650469)">1</text>
     </g>
    </g>
    <g id="xtick_3">
     <g id="line2d_3">
      <g>
       <use xlink:href="#m30ae036bf8" x="166.207424" y="222.64" style="stroke: #000000; stroke-width: 0.6"/>
      </g>
     </g>
     <g id="text_3">
      <text style="font: 7px 'Arial', 'Helvetica', 'DejaVu Sans', sans-serif; text-anchor: middle" x="166.207424" y="234.650469" transform="rotate(-0 166.207424 234.650469)">2</text>
     </g>
    </g>
    <g id="xtick_4">
     <g id="line2d_4">
      <g>
       <use xlink:href="#m30ae036bf8" x="225.18942" y="222.64" style="stroke: #000000; stroke-width: 0.6"/>
      </g>
     </g>
     <g id="text_4">
      <text style="font: 7px 'Arial', 'Helvetica', 'DejaVu Sans', sans-serif; text-anchor: middle" x="225.18942" y="234.650469" transform="rotate(-0 225.18942 234.650469)">3</text>
     </g>
    </g>
    <g id="xtick_5">
     <g id="line2d_5">
      <g>
       <use xlink:href="#m30ae036bf8" x="284.171417" y="222.64" style="stroke: #000000; stroke-width: 0.6"/>
      </g>
     </g>
     <g id="text_5">
      <text style="font: 7px 'Arial', 'Helvetica', 'DejaVu Sans', sans-serif; text-anchor: middle" x="284.171417" y="234.650469" transform="rotate(-0 284.171417 234.650469)">4</text>
     </g>
    </g>
    <g id="text_6">
     <text style="font: 7px 'Arial', 'Helvetica', 'DejaVu Sans', sans-serif; text-anchor: middle" x="166.207424" y="245.1375" transform="rotate(-0 166.207424 245.1375)">Time (Days)</text>
    </g>
   </g>
   <g id="matplotlib.axis_2">
    <g id="ytick_1">
     <g id="line2d_6">
      <defs>
       <path id="mf56c8e3f47" d="M 0 0 
L -3.5 0 
" style="stroke: #000000; stroke-width: 0.6"/>
      </defs>
      <g>
       <use xlink:href="#mf56c8e3f47" x="36.447031" y="207.256667" style="stroke: #000000; stroke-width: 0.6"/>
      </g>
     </g>
     <g id="text_7">
      <text style="font: 7px 'Arial', 'Helvetica', 'DejaVu Sans', sans-serif; text-anchor: end" x="29.447031" y="209.761901" transform="rotate(-0 29.447031 209.761901)">0</text>
     </g>
    </g>
    <g id="ytick_2">
     <g id="line2d_7">
      <g>
       <use xlink:href="#mf56c8e3f47" x="36.447031" y="176.49" style="stroke: #000000; stroke-width: 0.6"/>
      </g>
     </g>
     <g id="text_8">
      <text style="font: 7px 'Arial', 'Helvetica', 'DejaVu Sans', sans-serif; text-anchor: end" x="29.447031" y="178.995234" transform="rotate(-0 29.447031 178.995234)">20</text>
     </g>
    </g>
    <g id="ytick_3">
     <g id="line2d_8">
      <g>
       <use xlink:href="#mf56c8e3f47" x="36.447031" y="145.723333" style="stroke: #000000; stroke-width: 0.6"/>
      </g>
     </g>
     <g id="text_9">
      <text style="font: 7px 'Arial', 'Helvetica', 'DejaVu Sans', sans-serif; text-anchor: end" x="29.447031" y="148.228568" transform="rotate(-0 29.447031 148.228568)">40</text>
     </g>
    </g>
    <g id="ytick_4">
     <g id="line2d_9">
      <g>
       <use xlink:href="#mf56c8e3f47" x="36.447031" y="114.956667" style="stroke: #000000; stroke-width: 0.6"/>
      </g>
     </g>
     <g id="text_10">
      <text style="font: 7px 'Arial', 'Helvetica', 'DejaVu Sans', sans-serif; text-anchor: end" x="29.447031" y="117.461901" transform="rotate(-0 29.447031 117.461901)">60</text>
     </g>
    </g>
    <g id="ytick_5">
     <g id="line2d_10">
      <g>
       <use xlink:href="#mf56c8e3f47" x="36.447031" y="84.19" style="stroke: #000000; stroke-width: 0.6"/>
      </g>
     </g>
     <g id="text_11">
      <text style="font: 7px 'Arial', 'Helvetica', 'DejaVu Sans', sans-serif; text-anchor: end" x="29.447031" y="86.695234" transform="rotate(-0 29.447031 86.695234)">80</text>
     </g>
    </g>
    <g id="ytick_6">
     <g id="line2d_11">
      <g>
       <use xlink:href="#mf56c8e3f47" x="36.447031" y="53.423333" style="stroke: #000000; stroke-width: 0.6"/>
      </g>
     </g>
     <g id="text_12">
      <text style="font: 7px 'Arial', 'Helvetica', 'DejaVu Sans', sans-serif; text-anchor: end" x="29.447031" y="55.928568" transform="rotate(-0 29.447031 55.928568)">100</text>
     </g>
    </g>
    <g id="text_13">
     <text style="font: 7px 'Arial', 'Helvetica', 'DejaVu Sans', sans-serif; text-anchor: middle" x="12.295781" y="130.34" transform="rotate(-90 12.295781 130.34)">Survival Rate (%)</text>
    </g>
   </g>
   <g id="line2d_12">
    <path d="M 48.243431 53.423333 
L 107.225427 53.423333 
L 107.225427 53.423333 
L 166.207424 53.423333 
L 166.207424 53.423333 
L 225.18942 53.423333 
L 225.18942 53.423333 
L 284.171417 53.423333 
L 284.171417 53.423333 
" clip-path="url(#pe5897c91f7)" style="fill: none; stroke: #000000; stroke-width: 1.2; stroke-linecap: square"/>
   </g>
   <g id="line2d_13">
    <path d="M 284.171417 53.423333 
" clip-path="url(#pe5897c91f7)" style="fill: none; stroke: #000000; stroke-width: 1.5; stroke-linecap: square"/>
    <defs>
     <path id="m6c30cb28d1" d="M 0 3 
L 0 -3 
" style="stroke: #000000"/>
    </defs>
    <g clip-path="url(#pe5897c91f7)">
     <use xlink:href="#m6c30cb28d1" x="284.171417" y="53.423333" style="stroke: #000000"/>
    </g>
   </g>
   <g id="line2d_14">
    <path d="M 48.243431 54.654 
L 107.225427 54.654 
L 107.225427 54.654 
L 166.207424 54.654 
L 166.207424 54.654 
L 225.18942 54.654 
L 225.18942 54.654 
L 284.171417 54.654 
L 284.171417 93.112333 
" clip-path="url(#pe5897c91f7)" style="fill: none; stroke-dasharray: 1,1.65; stroke-dashoffset: 0; stroke: #1f77b4"/>
   </g>
   <g id="line2d_15">
    <defs>
     <path id="ma4ec428cc4" d="M 0 1.75 
C 0.464105 1.75 0.909265 1.565609 1.237437 1.237437 
C 1.565609 0.909265 1.75 0.464105 1.75 0 
C 1.75 -0.464105 1.565609 -0.909265 1.237437 -1.237437 
C 0.909265 -1.565609 0.464105 -1.75 0 -1.75 
C -0.464105 -1.75 -0.909265 -1.565609 -1.237437 -1.237437 
C -1.565609 -0.909265 -1.75 -0.464105 -1.75 0 
C -1.75 0.464105 -1.565609 0.909265 -1.237437 1.237437 
C -0.909265 1.565609 -0.464105 1.75 0 1.75 
z
" style="stroke: #1f77b4; stroke-width: 0.7"/>
    </defs>
    <g clip-path="url(#pe5897c91f7)">
     <use xlink:href="#ma4ec428cc4" x="48.243431" y="54.654" style="fill: #ffffff; stroke: #1f77b4; stroke-width: 0.7"/>
     <use xlink:href="#ma4ec428cc4" x="107.225427" y="54.654" style="fill: #ffffff; stroke: #1f77b4; stroke-width: 0.7"/>
     <use xlink:href="#ma4ec428cc4" x="166.207424" y="54.654" style="fill: #ffffff; stroke: #1f77b4; stroke-width: 0.7"/>
     <use xlink:href="#ma4ec428cc4" x="225.18942" y="54.654" style="fill: #ffffff; stroke: #1f77b4; stroke-width: 0.7"/>
     <use xlink:href="#ma4ec428cc4" x="284.171417" y="93.112333" style="fill: #ffffff; stroke: #1f77b4; stroke-width: 0.7"/>
    </g>
   </g>
   <g id="line2d_16">
    <path d="M 284.171417 93.112333 
" clip-path="url(#pe5897c91f7)" style="fill: none; stroke: #1f77b4; stroke-width: 1.5; stroke-linecap: square"/>
    <defs>
     <path id="mf14d46a5f9" d="M 0 2.5 
L 0 -2.5 
" style="stroke: #1f77b4; stroke-width: 0.7"/>
    </defs>
    <g clip-path="url(#pe5897c91f7)">
     <use xlink:href="#mf14d46a5f9" x="284.171417" y="93.112333" style="fill: #1f77b4; stroke: #1f77b4; stroke-width: 0.7"/>
    </g>
   </g>
   <g id="line2d_17">
    <path d="M 48.243431 53.423333 
L 107.225427 53.423333 
L 107.225427 53.423333 
L 166.207424 53.423333 
L 166.207424 53.423333 
L 225.18942 53.423333 
L 225.18942 53.423333 
L 284.171417 53.423333 
L 284.171417 53.423333 
" clip-path="url(#pe5897c91f7)" style="fill: none; stroke-dasharray: 3.7,1.6; stroke-dashoffset: 0; stroke: #1f77b4"/>
   </g>
   <g id="line2d_18">
    <defs>
     <path id="m5e20d9a3e2" d="M -1.75 1.75 
L 1.75 1.75 
L 1.75 -1.75 
L -1.75 -1.75 
z
" style="stroke: #1f77b4; stroke-width: 0.7; stroke-linejoin: miter"/>
    </defs>
    <g clip-path="url(#pe5897c91f7)">
     <use xlink:href="#m5e20d9a3e2" x="48.243431" y="53.423333" style="fill: #ffffff; stroke: #1f77b4; stroke-width: 0.7; stroke-linejoin: miter"/>
     <use xlink:href="#m5e20d9a3e2" x="107.225427" y="53.423333" style="fill: #ffffff; stroke: #1f77b4; stroke-width: 0.7; stroke-linejoin: miter"/>
     <use xlink:href="#m5e20d9a3e2" x="166.207424" y="53.423333" style="fill: #ffffff; stroke: #1f77b4; stroke-width: 0.7; stroke-linejoin: miter"/>
     <use xlink:href="#m5e20d9a3e2" x="225.18942" y="53.423333" style="fill: #ffffff; stroke: #1f77b4; stroke-width: 0.7; stroke-linejoin: miter"/>
     <use xlink:href="#m5e20d9a3e2" x="284.171417" y="53.423333" style="fill: #ffffff; stroke: #1f77b4; stroke-width: 0.7; stroke-linejoin: miter"/>
    </g>
   </g>
   <g id="line2d_19">
    <path d="M 284.171417 53.423333 
" clip-path="url(#pe5897c91f7)" style="fill: none; stroke: #1f77b4; stroke-width: 1.5; stroke-linecap: square"/>
    <g clip-path="url(#pe5897c91f7)">
     <use xlink:href="#mf14d46a5f9" x="284.171417" y="53.423333" style="fill: #1f77b4; stroke: #1f77b4; stroke-width: 0.7"/>
    </g>
   </g>
   <g id="line2d_20">
    <path d="M 48.243431 52.192667 
L 107.225427 52.192667 
L 107.225427 52.192667 
L 166.207424 52.192667 
L 166.207424 52.192667 
L 225.18942 52.192667 
L 225.18942 52.192667 
L 284.171417 52.192667 
L 284.171417 52.192667 
" clip-path="url(#pe5897c91f7)" style="fill: none; stroke: #1f77b4; stroke-linecap: square"/>
   </g>
   <g id="line2d_21">
    <defs>
     <path id="md47cd04f24" d="M 0 -1.75 
L -1.75 1.75 
L 1.75 1.75 
z
" style="stroke: #1f77b4; stroke-width: 0.7; stroke-linejoin: miter"/>
    </defs>
    <g clip-path="url(#pe5897c91f7)">
     <use xlink:href="#md47cd04f24" x="48.243431" y="52.192667" style="fill: #ffffff; stroke: #1f77b4; stroke-width: 0.7; stroke-linejoin: miter"/>
     <use xlink:href="#md47cd04f24" x="107.225427" y="52.192667" style="fill: #ffffff; stroke: #1f77b4; stroke-width: 0.7; stroke-linejoin: miter"/>
     <use xlink:href="#md47cd04f24" x="166.207424" y="52.192667" style="fill: #ffffff; stroke: #1f77b4; stroke-width: 0.7; stroke-linejoin: miter"/>
     <use xlink:href="#md47cd04f24" x="225.18942" y="52.192667" style="fill: #ffffff; stroke: #1f77b4; stroke-width: 0.7; stroke-linejoin: miter"/>
     <use xlink:href="#md47cd04f24" x="284.171417" y="52.192667" style="fill: #ffffff; stroke: #1f77b4; stroke-width: 0.7; stroke-linejoin: miter"/>
    </g>
   </g>
   <g id="line2d_22">
    <path d="M 284.171417 52.192667 
" clip-path="url(#pe5897c91f7)" style="fill: none; stroke: #1f77b4; stroke-width: 1.5; stroke-linecap: square"/>
    <g clip-path="url(#pe5897c91f7)">
     <use xlink:href="#mf14d46a5f9" x="284.171417" y="52.192667" style="fill: #1f77b4; stroke: #1f77b4; stroke-width: 0.7"/>
    </g>
   </g>
   <g id="patch_3">
    <path d="M 36.447031 222.64 
L 36.447031 38.04 
" style="fill: none; stroke: #000000; stroke-width: 0.6; stroke-linejoin: miter; stroke-linecap: square"/>
   </g>
   <g id="patch_4">
    <path d="M 36.447031 222.64 
L 295.967816 222.64 
" style="fill: none; stroke: #000000; stroke-width: 0.6; stroke-linejoin: miter; stroke-linecap: square"/>
   </g>
   <g id="text_14">
    <text style="font: 700 8px 'Arial', 'Helvetica', 'DejaVu Sans', sans-serif; text-anchor: start" x="36.447031" y="32.04" transform="rotate(-0 36.447031 32.04)">A: Oral Administration (PO)</text>
   </g>
   <g id="legend_1">
    <g id="line2d_23">
     <path d="M 41.847031 187.974063 
L 47.847031 187.974063 
L 47.847031 187.974063 
L 53.847031 187.974063 
L 53.847031 187.974063 
" style="fill: none; stroke: #000000; stroke-width: 1.2; stroke-linecap: square"/>
    </g>
    <g id="text_15">
     <text style="font: 6px 'Arial', 'Helvetica', 'DejaVu Sans', sans-serif; text-anchor: start" x="58.647031" y="190.074062" transform="rotate(-0 58.647031 190.074062)">Control (n=3)</text>
    </g>
    <g id="line2d_24">
     <path d="M 41.847031 196.608438 
L 47.847031 196.608438 
L 47.847031 196.608438 
L 53.847031 196.608438 
L 53.847031 196.608438 
" style="fill: none; stroke-dasharray: 1,1.65; stroke-dashoffset: 0; stroke: #1f77b4"/>
    </g>
    <g id="text_16">
     <text style="font: 6px 'Arial', 'Helvetica', 'DejaVu Sans', sans-serif; text-anchor: start" x="58.647031" y="198.708438" transform="rotate(-0 58.647031 198.708438)">PO_low (n=4)</text>
    </g>
    <g id="line2d_25">
     <path d="M 41.847031 205.242812 
L 47.847031 205.242812 
L 47.847031 205.242812 
L 53.847031 205.242812 
L 53.847031 205.242812 
" style="fill: none; stroke-dasharray: 3.7,1.6; stroke-dashoffset: 0; stroke: #1f77b4"/>
    </g>
    <g id="text_17">
     <text style="font: 6px 'Arial', 'Helvetica', 'DejaVu Sans', sans-serif; text-anchor: start" x="58.647031" y="207.342812" transform="rotate(-0 58.647031 207.342812)">PO_medium (n=4)</text>
    </g>
    <g id="line2d_26">
     <path d="M 41.847031 213.877187 
L 47.847031 213.877187 
L 47.847031 213.877187 
L 53.847031 213.877187 
L 53.847031 213.877187 
" style="fill: none; stroke: #1f77b4; stroke-linecap: square"/>
    </g>
    <g id="text_18">
     <text style="font: 6px 'Arial', 'Helvetica', 'DejaVu Sans', sans-serif; text-anchor: start" x="58.647031" y="215.977187" transform="rotate(-0 58.647031 215.977187)">PO_high (n=4)</text>
    </g>
   </g>
  </g>
  <g id="axes_2">
   <g id="patch_5">
    <path d="M 307.027816 222.64 
L 566.548601 222.64 
L 566.548601 38.04 
L 307.027816 38.04 
z
" style="fill: #ffffff"/>
   </g>
   <g id="matplotlib.axis_3">
    <g id="xtick_6">
     <g id="line2d_27">
      <g>
       <use xlink:href="#m30ae036bf8" x="318.824216" y="222.64" style="stroke: #000000; stroke-width: 0.6"/>
      </g>
     </g>
     <g id="text_19">
      <text style="font: 7px 'Arial', 'Helvetica', 'DejaVu Sans', sans-serif; text-anchor: middle" x="318.824216" y="234.650469" transform="rotate(-0 318.824216 234.650469)">0</text>
     </g>
    </g>
    <g id="xtick_7">
     <g id="line2d_28">
      <g>
       <use xlink:href="#m30ae036bf8" x="377.806212" y="222.64" style="stroke: #000000; stroke-width: 0.6"/>
      </g>
     </g>
     <g id="text_20">
      <text style="font: 7px 'Arial', 'Helvetica', 'DejaVu Sans', sans-serif; text-anchor: middle" x="377.806212" y="234.650469" transform="rotate(-0 377.806212 234.650469)">1</text>
     </g>
    </g>
    <g id="xtick_8">
     <g id="line2d_29">
      <g>
       <use xlink:href="#m30ae036bf8" x="436.788209" y="222.64" style="stroke: #000000; stroke-width: 0.6"/>
      </g>
     </g>
     <g id="text_21">
      <text style="font: 7px 'Arial', 'Helvetica', 'DejaVu Sans', sans-serif; text-anchor: middle" x="436.788209" y="234.650469" transform="rotate(-0 436.788209 234.650469)">2</text>
     </g>
    </g>
    <g id="xtick_9">
     <g id="line2d_30">
      <g>
       <use xlink:href="#m30ae036bf8" x="495.770206" y="222.64" style="stroke: #000000; stroke-width: 0.6"/>
      </g>
     </g>
     <g id="text_22">
      <text style="font: 7px 'Arial', 'Helvetica', 'DejaVu Sans', sans-serif; text-anchor: middle" x="495.770206" y="234.650469" transform="rotate(-0 495.770206 234.650469)">3</text>
     </g>
    </g>
    <g id="xtick_10">
     <g id="line2d_31">
      <g>
       <use xlink:href="#m30ae036bf8" x="554.752202" y="222.64" style="stroke: #000000; stroke-width: 0.6"/>
      </g>
     </g>
     <g id="text_23">
      <text style="font: 7px 'Arial', 'Helvetica', 'DejaVu Sans', sans-serif; text-anchor: middle" x="554.752202" y="234.650469" transform="rotate(-0 554.752202 234.650469)">4</text>
     </g>
    </g>
    <g id="text_24">
     <text style="font: 7px 'Arial', 'Helvetica', 'DejaVu Sans', sans-serif; text-anchor: middle" x="436.788209" y="245.1375" transform="rotate(-0 436.788209 245.1375)">Time (Days)</text>
    </g>
   </g>
   <g id="matplotlib.axis_4">
    <g id="ytick_7">
     <g id="line2d_32">
      <g>
       <use xlink:href="#mf56c8e3f47" x="307.027816" y="207.256667" style="stroke: #000000; stroke-width: 0.6"/>
      </g>
     </g>
    </g>
    <g id="ytick_8">
     <g id="line2d_33">
      <g>
       <use xlink:href="#mf56c8e3f47" x="307.027816" y="176.49" style="stroke: #000000; stroke-width: 0.6"/>
      </g>
     </g>
    </g>
    <g id="ytick_9">
     <g id="line2d_34">
      <g>
       <use xlink:href="#mf56c8e3f47" x="307.027816" y="145.723333" style="stroke: #000000; stroke-width: 0.6"/>
      </g>
     </g>
    </g>
    <g id="ytick_10">
     <g id="line2d_35">
      <g>
       <use xlink:href="#mf56c8e3f47" x="307.027816" y="114.956667" style="stroke: #000000; stroke-width: 0.6"/>
      </g>
     </g>
    </g>
    <g id="ytick_11">
     <g id="line2d_36">
      <g>
       <use xlink:href="#mf56c8e3f47" x="307.027816" y="84.19" style="stroke: #000000; stroke-width: 0.6"/>
      </g>
     </g>
    </g>
    <g id="ytick_12">
     <g id="line2d_37">
      <g>
       <use xlink:href="#mf56c8e3f47" x="307.027816" y="53.423333" style="stroke: #000000; stroke-width: 0.6"/>
      </g>
     </g>
    </g>
   </g>
   <g id="line2d_38">
    <path d="M 318.824216 53.423333 
L 377.806212 53.423333 
L 377.806212 53.423333 
L 436.788209 53.423333 
L 436.788209 53.423333 
L 495.770206 53.423333 
L 495.770206 53.423333 
L 554.752202 53.423333 
L 554.752202 53.423333 
" clip-path="url(#p4074468b81)" style="fill: none; stroke: #000000; stroke-width: 1.2; stroke-linecap: square"/>
   </g>
   <g id="line2d_39">
    <path d="M 554.752202 53.423333 
" clip-path="url(#p4074468b81)" style="fill: none; stroke: #000000; stroke-width: 1.5; stroke-linecap: square"/>
    <g clip-path="url(#p4074468b81)">
     <use xlink:href="#m6c30cb28d1" x="554.752202" y="53.423333" style="stroke: #000000"/>
    </g>
   </g>
   <g id="line2d_40">
    <path d="M 318.824216 54.654 
L 377.806212 54.654 
L 377.806212 54.654 
L 436.788209 54.654 
L 436.788209 54.654 
L 495.770206 54.654 
L 495.770206 54.654 
L 554.752202 54.654 
L 554.752202 54.654 
" clip-path="url(#p4074468b81)" style="fill: none; stroke-dasharray: 1,1.65; stroke-dashoffset: 0; stroke: #d62728"/>
   </g>
   <g id="line2d_41">
    <defs>
     <path id="m33f83a3838" d="M 0 1.75 
C 0.464105 1.75 0.909265 1.565609 1.237437 1.237437 
C 1.565609 0.909265 1.75 0.464105 1.75 0 
C 1.75 -0.464105 1.565609 -0.909265 1.237437 -1.237437 
C 0.909265 -1.565609 0.464105 -1.75 0 -1.75 
C -0.464105 -1.75 -0.909265 -1.565609 -1.237437 -1.237437 
C -1.565609 -0.909265 -1.75 -0.464105 -1.75 0 
C -1.75 0.464105 -1.565609 0.909265 -1.237437 1.237437 
C -0.909265 1.565609 -0.464105 1.75 0 1.75 
z
" style="stroke: #d62728; stroke-width: 0.7"/>
    </defs>
    <g clip-path="url(#p4074468b81)">
     <use xlink:href="#m33f83a3838" x="318.824216" y="54.654" style="fill: #ffffff; stroke: #d62728; stroke-width: 0.7"/>
     <use xlink:href="#m33f83a3838" x="377.806212" y="54.654" style="fill: #ffffff; stroke: #d62728; stroke-width: 0.7"/>
     <use xlink:href="#m33f83a3838" x="436.788209" y="54.654" style="fill: #ffffff; stroke: #d62728; stroke-width: 0.7"/>
     <use xlink:href="#m33f83a3838" x="495.770206" y="54.654" style="fill: #ffffff; stroke: #d62728; stroke-width: 0.7"/>
     <use xlink:href="#m33f83a3838" x="554.752202" y="54.654" style="fill: #ffffff; stroke: #d62728; stroke-width: 0.7"/>
    </g>
   </g>
   <g id="line2d_42">
    <path d="M 554.752202 54.654 
" clip-path="url(#p4074468b81)" style="fill: none; stroke: #d62728; stroke-width: 1.5; stroke-linecap: square"/>
    <defs>
     <path id="mec10ff91a8" d="M 0 2.5 
L 0 -2.5 
" style="stroke: #d62728; stroke-width: 0.7"/>
    </defs>
    <g clip-path="url(#p4074468b81)">
     <use xlink:href="#mec10ff91a8" x="554.752202" y="54.654" style="fill: #d62728; stroke: #d62728; stroke-width: 0.7"/>
    </g>
   </g>
   <g id="line2d_43">
    <path d="M 318.824216 53.423333 
L 377.806212 53.423333 
L 377.806212 53.423333 
L 436.788209 53.423333 
L 436.788209 53.423333 
L 495.770206 53.423333 
L 495.770206 130.34 
L 554.752202 130.34 
L 554.752202 168.798333 
" clip-path="url(#p4074468b81)" style="fill: none; stroke-dasharray: 3.7,1.6; stroke-dashoffset: 0; stroke: #d62728"/>
   </g>
   <g id="line2d_44">
    <defs>
     <path id="md7f6d95e19" d="M -1.75 1.75 
L 1.75 1.75 
L 1.75 -1.75 
L -1.75 -1.75 
z
" style="stroke: #d62728; stroke-width: 0.7; stroke-linejoin: miter"/>
    </defs>
    <g clip-path="url(#p4074468b81)">
     <use xlink:href="#md7f6d95e19" x="318.824216" y="53.423333" style="fill: #ffffff; stroke: #d62728; stroke-width: 0.7; stroke-linejoin: miter"/>
     <use xlink:href="#md7f6d95e19" x="377.806212" y="53.423333" style="fill: #ffffff; stroke: #d62728; stroke-width: 0.7; stroke-linejoin: miter"/>
     <use xlink:href="#md7f6d95e19" x="436.788209" y="53.423333" style="fill: #ffffff; stroke: #d62728; stroke-width: 0.7; stroke-linejoin: miter"/>
     <use xlink:href="#md7f6d95e19" x="495.770206" y="130.34" style="fill: #ffffff; stroke: #d62728; stroke-width: 0.7; stroke-linejoin: miter"/>
     <use xlink:href="#md7f6d95e19" x="554.752202" y="168.798333" style="fill: #ffffff; stroke: #d62728; stroke-width: 0.7; stroke-linejoin: miter"/>
    </g>
   </g>
   <g id="line2d_45">
    <path d="M 554.752202 168.798333 
" clip-path="url(#p4074468b81)" style="fill: none; stroke: #d62728; stroke-width: 1.5; stroke-linecap: square"/>
    <g clip-path="url(#p4074468b81)">
     <use xlink:href="#mec10ff91a8" x="554.752202" y="168.798333" style="fill: #d62728; stroke: #d62728; stroke-width: 0.7"/>
    </g>
   </g>
   <g id="line2d_46">
    <path d="M 318.824216 52.192667 
L 377.806212 52.192667 
L 377.806212 167.567667 
L 436.788209 167.567667 
L 436.788209 206.026 
L 495.770206 206.026 
L 495.770206 206.026 
L 554.752202 206.026 
L 554.752202 206.026 
" clip-path="url(#p4074468b81)" style="fill: none; stroke: #d62728; stroke-linecap: square"/>
   </g>
   <g id="line2d_47">
    <defs>
     <path id="ma33cee48a0" d="M 0 -1.75 
L -1.75 1.75 
L 1.75 1.75 
z
" style="stroke: #d62728; stroke-width: 0.7; stroke-linejoin: miter"/>
    </defs>
    <g clip-path="url(#p4074468b81)">
     <use xlink:href="#ma33cee48a0" x="318.824216" y="52.192667" style="fill: #ffffff; stroke: #d62728; stroke-width: 0.7; stroke-linejoin: miter"/>
     <use xlink:href="#ma33cee48a0" x="377.806212" y="167.567667" style="fill: #ffffff; stroke: #d62728; stroke-width: 0.7; stroke-linejoin: miter"/>
     <use xlink:href="#ma33cee48a0" x="436.788209" y="206.026" style="fill: #ffffff; stroke: #d62728; stroke-width: 0.7; stroke-linejoin: miter"/>
     <use xlink:href="#ma33cee48a0" x="495.770206" y="206.026" style="fill: #ffffff; stroke: #d62728; stroke-width: 0.7; stroke-linejoin: miter"/>
     <use xlink:href="#ma33cee48a0" x="554.752202" y="206.026" style="fill: #ffffff; stroke: #d62728; stroke-width: 0.7; stroke-linejoin: miter"/>
    </g>
   </g>
   <g id="line2d_48">
    <path d="M 554.752202 206.026 
" clip-path="url(#p4074468b81)" style="fill: none; stroke: #d62728; stroke-width: 1.5; stroke-linecap: square"/>
    <g clip-path="url(#p4074468b81)">
     <use xlink:href="#mec10ff91a8" x="554.752202" y="206.026" style="fill: #d62728; stroke: #d62728; stroke-width: 0.7"/>
    </g>
   </g>
   <g id="patch_6">
    <path d="M 307.027816 222.64 
L 307.027816 38.04 
" style="fill: none; stroke: #000000; stroke-width: 0.6; stroke-linejoin: miter; stroke-linecap: square"/>
   </g>
   <g id="patch_7">
    <path d="M 307.027816 222.64 
L 566.548601 222.64 
" style="fill: none; stroke: #000000; stroke-width: 0.6; stroke-linejoin: miter; stroke-linecap: square"/>
   </g>
   <g id="text_25">
    <text style="fill: #d62728; font: 700 8px 'Arial', 'Helvetica', 'DejaVu Sans', sans-serif; text-anchor: start" x="560.650402" y="170.872083" transform="rotate(-0 560.650402 170.872083)">*</text>
   </g>
   <g id="text_26">
    <text style="fill: #d62728; font: 700 8px 'Arial', 'Helvetica', 'DejaVu Sans', sans-serif; text-anchor: start" x="560.650402" y="208.09975" transform="rotate(-0 560.650402 208.09975)">**</text>
   </g>
   <g id="text_27">
    <text style="font: 700 8px 'Arial', 'Helvetica', 'DejaVu Sans', sans-serif; text-anchor: start" x="307.027816" y="32.04" transform="rotate(-0 307.027816 32.04)">B: Intraperitoneal Injection (IP)</text>
   </g>
   <g id="legend_2">
    <g id="line2d_49">
     <path d="M 312.427816 187.985312 
L 318.427816 187.985312 
L 318.427816 187.985312 
L 324.427816 187.985312 
L 324.427816 187.985312 
" style="fill: none; stroke: #000000; stroke-width: 1.2; stroke-linecap: square"/>
    </g>
    <g id="text_28">
     <text style="font: 6px 'Arial', 'Helvetica', 'DejaVu Sans', sans-serif; text-anchor: start" x="329.227816" y="190.085312" transform="rotate(-0 329.227816 190.085312)">Control (n=4)</text>
    </g>
    <g id="line2d_50">
     <path d="M 312.427816 196.615938 
L 318.427816 196.615938 
L 318.427816 196.615938 
L 324.427816 196.615938 
L 324.427816 196.615938 
" style="fill: none; stroke-dasharray: 1,1.65; stroke-dashoffset: 0; stroke: #d62728"/>
    </g>
    <g id="text_29">
     <text style="font: 6px 'Arial', 'Helvetica', 'DejaVu Sans', sans-serif; text-anchor: start" x="329.227816" y="198.715937" transform="rotate(-0 329.227816 198.715937)">IP_low (n=4)</text>
    </g>
    <g id="line2d_51">
     <path d="M 312.427816 205.246563 
L 318.427816 205.246563 
L 318.427816 205.246563 
L 324.427816 205.246563 
L 324.427816 205.246563 
" style="fill: none; stroke-dasharray: 3.7,1.6; stroke-dashoffset: 0; stroke: #d62728"/>
    </g>
    <g id="text_30">
     <text style="font: 6px 'Arial', 'Helvetica', 'DejaVu Sans', sans-serif; text-anchor: start" x="329.227816" y="207.346563" transform="rotate(-0 329.227816 207.346563)">IP_medium (n=4)</text>
    </g>
    <g id="line2d_52">
     <path d="M 312.427816 213.877187 
L 318.427816 213.877187 
L 318.427816 213.877187 
L 324.427816 213.877187 
L 324.427816 213.877187 
" style="fill: none; stroke: #d62728; stroke-linecap: square"/>
    </g>
    <g id="text_31">
     <text style="font: 6px 'Arial', 'Helvetica', 'DejaVu Sans', sans-serif; text-anchor: start" x="329.227816" y="215.977187" transform="rotate(-0 329.227816 215.977187)">IP_high (n=4)</text>
    </g>
   </g>
  </g>
  <g id="text_32">
   <text style="font: 700 9px 'Arial', 'Helvetica', 'DejaVu Sans', sans-serif; text-anchor: middle" x="287.797031" y="13.751719" transform="rotate(-0 287.797031 13.751719)">Survival Analysis of Salmonella Infection by Route and Dose</text>
  </g>
 </g>
 <defs>
  <clipPath id="pe5897c91f7">
   <rect x="36.447031" y="38.04" width="259.520785" height="184.6"/>
  </clipPath>
  <clipPath id="p4074468b81">
   <rect x="307.027816" y="38.04" width="259.520785" height="184.6"/>
  </clipPath>
 </defs>
</svg>
