<?xml version="1.0" encoding="utf-8" standalone="no"?>
<!DOCTYPE svg PUBLIC "-//W3C//DTD SVG 1.1//EN"
  "http://www.w3.org/Graphics/SVG/1.1/DTD/svg11.dtd">
<svg xmlns:xlink="http://www.w3.org/1999/xlink" width="392.496971pt" height="249.54375pt" viewBox="0 0 392.496971 249.54375" xmlns="http://www.w3.org/2000/svg" version="1.1">
 <metadata>
  <rdf:RDF xmlns:dc="http://purl.org/dc/elements/1.1/" xmlns:cc="http://creativecommons.org/ns#" xmlns:rdf="http://www.w3.org/1999/02/22-rdf-syntax-ns#">
   <cc:Work>
    <dc:type rdf:resource="http://purl.org/dc/dcmitype/StillImage"/>
    <dc:date>2026-05-18T09:16:02.388218</dc:date>
    <dc:format>image/svg+xml</dc:format>
    <dc:creator>
     <cc:Agent>
      <dc:title>Matplotlib v3.9.4, https://matplotlib.org/</dc:title>
     </cc:Agent>
    </dc:creator>
   </cc:Work>
  </rdf:RDF>
 </metadata>
 <defs>
  <style type="text/css">*{stroke-linejoin: round; stroke-linecap: butt}</style>
 </defs>
 <g id="figure_1">
  <g id="patch_1">
   <path d="M 0 249.54375 
L 392.496971 249.54375 
L 392.496971 0 
L 0 0 
z
" style="fill: #ffffff"/>
  </g>
  <g id="axes_1">
   <g id="patch_2">
    <path d="M 39.05375 216.52 
L 312.232 216.52 
L 312.232 7.2 
L 39.05375 7.2 
z
" style="fill: #ffffff"/>
   </g>
   <g id="matplotlib.axis_1">
    <g id="xtick_1">
     <g id="line2d_1">
      <defs>
       <path id="m3429bf3df8" d="M 0 0 
L 0 3.5 
" style="stroke: #000000; stroke-width: 0.8"/>
      </defs>
      <g>
       <use xlink:href="#m3429bf3df8" x="51.470943" y="216.52" style="stroke: #000000; stroke-width: 0.8"/>
      </g>
     </g>
     <g id="text_1">
      <text style="font: 8px 'Arial', 'Helvetica', 'DejaVu Sans', sans-serif; text-anchor: middle" x="51.470943" y="229.24625" transform="rotate(-0 51.470943 229.24625)">0</text>
     </g>
    </g>
    <g id="xtick_2">
     <g id="line2d_2">
      <g>
       <use xlink:href="#m3429bf3df8" x="113.556909" y="216.52" style="stroke: #000000; stroke-width: 0.8"/>
      </g>
     </g>
     <g id="text_2">
      <text style="font: 8px 'Arial', 'Helvetica', 'DejaVu Sans', sans-serif; text-anchor: middle" x="113.556909" y="229.24625" transform="rotate(-0 113.556909 229.24625)">1</text>
     </g>
    </g>
    <g id="xtick_3">
     <g id="line2d_3">
      <g>
       <use xlink:href="#m3429bf3df8" x="175.642875" y="216.52" style="stroke: #000000; stroke-width: 0.8"/>
      </g>
     </g>
     <g id="text_3">
      <text style="font: 8px 'Arial', 'Helvetica', 'DejaVu Sans', sans-serif; text-anchor: middle" x="175.642875" y="229.24625" transform="rotate(-0 175.642875 229.24625)">2</text>
     </g>
    </g>
    <g id="xtick_4">
     <g id="line2d_4">
      <g>
       <use xlink:href="#m3429bf3df8" x="237.728841" y="216.52" style="stroke: #000000; stroke-width: 0.8"/>
      </g>
     </g>
     <g id="text_4">
      <text style="font: 8px 'Arial', 'Helvetica', 'DejaVu Sans', sans-serif; text-anchor: middle" x="237.728841" y="229.24625" transform="rotate(-0 237.728841 229.24625)">3</text>
     </g>
    </g>
    <g id="xtick_5">
     <g id="line2d_5">
      <g>
       <use xlink:href="#m3429bf3df8" x="299.814807" y="216.52" style="stroke: #000000; stroke-width: 0.8"/>
      </g>
     </g>
     <g id="text_5">
      <text style="font: 8px 'Arial', 'Helvetica', 'DejaVu Sans', sans-serif; text-anchor: middle" x="299.814807" y="229.24625" transform="rotate(-0 299.814807 229.24625)">4</text>
     </g>
    </g>
    <g id="text_6">
     <text style="font: 8px 'Arial', 'Helvetica', 'DejaVu Sans', sans-serif; text-anchor: middle" x="175.642875" y="240.66" transform="rotate(-0 175.642875 240.66)">Time (Days)</text>
    </g>
   </g>
   <g id="matplotlib.axis_2">
    <g id="ytick_1">
     <g id="line2d_6">
      <defs>
       <path id="m9debc41170" d="M 0 0 
L -3.5 0 
" style="stroke: #000000; stroke-width: 0.8"/>
      </defs>
      <g>
       <use xlink:href="#m9debc41170" x="39.05375" y="207.41913" style="stroke: #000000; stroke-width: 0.8"/>
      </g>
     </g>
     <g id="text_7">
      <text style="font: 8px 'Arial', 'Helvetica', 'DejaVu Sans', sans-serif; text-anchor: end" x="32.05375" y="210.282255" transform="rotate(-0 32.05375 210.282255)">0</text>
     </g>
    </g>
    <g id="ytick_2">
     <g id="line2d_7">
      <g>
       <use xlink:href="#m9debc41170" x="39.05375" y="171.015652" style="stroke: #000000; stroke-width: 0.8"/>
      </g>
     </g>
     <g id="text_8">
      <text style="font: 8px 'Arial', 'Helvetica', 'DejaVu Sans', sans-serif; text-anchor: end" x="32.05375" y="173.878777" transform="rotate(-0 32.05375 173.878777)">20</text>
     </g>
    </g>
    <g id="ytick_3">
     <g id="line2d_8">
      <g>
       <use xlink:href="#m9debc41170" x="39.05375" y="134.612174" style="stroke: #000000; stroke-width: 0.8"/>
      </g>
     </g>
     <g id="text_9">
      <text style="font: 8px 'Arial', 'Helvetica', 'DejaVu Sans', sans-serif; text-anchor: end" x="32.05375" y="137.475299" transform="rotate(-0 32.05375 137.475299)">40</text>
     </g>
    </g>
    <g id="ytick_4">
     <g id="line2d_9">
      <g>
       <use xlink:href="#m9debc41170" x="39.05375" y="98.208696" style="stroke: #000000; stroke-width: 0.8"/>
      </g>
     </g>
     <g id="text_10">
      <text style="font: 8px 'Arial', 'Helvetica', 'DejaVu Sans', sans-serif; text-anchor: end" x="32.05375" y="101.071821" transform="rotate(-0 32.05375 101.071821)">60</text>
     </g>
    </g>
    <g id="ytick_5">
     <g id="line2d_10">
      <g>
       <use xlink:href="#m9debc41170" x="39.05375" y="61.805217" style="stroke: #000000; stroke-width: 0.8"/>
      </g>
     </g>
     <g id="text_11">
      <text style="font: 8px 'Arial', 'Helvetica', 'DejaVu Sans', sans-serif; text-anchor: end" x="32.05375" y="64.668342" transform="rotate(-0 32.05375 64.668342)">80</text>
     </g>
    </g>
    <g id="ytick_6">
     <g id="line2d_11">
      <g>
       <use xlink:href="#m9debc41170" x="39.05375" y="25.401739" style="stroke: #000000; stroke-width: 0.8"/>
      </g>
     </g>
     <g id="text_12">
      <text style="font: 8px 'Arial', 'Helvetica', 'DejaVu Sans', sans-serif; text-anchor: end" x="32.05375" y="28.264864" transform="rotate(-0 32.05375 28.264864)">100</text>
     </g>
    </g>
    <g id="text_13">
     <text style="font: 8px 'Arial', 'Helvetica', 'DejaVu Sans', sans-serif; text-anchor: middle" x="13.02375" y="111.86" transform="rotate(-90 13.02375 111.86)">Survival Rate (%)</text>
    </g>
   </g>
   <g id="line2d_12">
    <path d="M 51.470943 25.401739 
L 113.556909 25.401739 
L 113.556909 25.401739 
L 175.642875 25.401739 
L 175.642875 25.401739 
L 237.728841 25.401739 
L 237.728841 25.401739 
L 299.814807 25.401739 
L 299.814807 70.906087 
" clip-path="url(#padab209a50)" style="fill: none; stroke-dasharray: 1.2,1.98; stroke-dashoffset: 0; stroke: #666666; stroke-width: 1.2"/>
    <defs>
     <path id="m0e6d8067d7" d="M 0 2 
C 0.530406 2 1.03916 1.789267 1.414214 1.414214 
C 1.789267 1.03916 2 0.530406 2 0 
C 2 -0.530406 1.789267 -1.03916 1.414214 -1.414214 
C 1.03916 -1.789267 0.530406 -2 0 -2 
C -0.530406 -2 -1.03916 -1.789267 -1.414214 -1.414214 
C -1.789267 -1.03916 -2 -0.530406 -2 0 
C -2 0.530406 -1.789267 1.03916 -1.414214 1.414214 
C -1.03916 1.789267 -0.530406 2 0 2 
z
" style="stroke: #666666"/>
    </defs>
    <g clip-path="url(#padab209a50)">
     <use xlink:href="#m0e6d8067d7" x="51.470943" y="25.401739" style="fill: #ffffff; stroke: #666666"/>
     <use xlink:href="#m0e6d8067d7" x="113.556909" y="25.401739" style="fill: #ffffff; stroke: #666666"/>
     <use xlink:href="#m0e6d8067d7" x="175.642875" y="25.401739" style="fill: #ffffff; stroke: #666666"/>
     <use xlink:href="#m0e6d8067d7" x="237.728841" y="25.401739" style="fill: #ffffff; stroke: #666666"/>
     <use xlink:href="#m0e6d8067d7" x="299.814807" y="70.906087" style="fill: #ffffff; stroke: #666666"/>
    </g>
   </g>
   <g id="line2d_13">
    <path d="M 51.470943 25.401739 
L 113.556909 25.401739 
L 113.556909 25.401739 
L 175.642875 25.401739 
L 175.642875 25.401739 
L 237.728841 25.401739 
L 237.728841 25.401739 
L 299.814807 25.401739 
L 299.814807 25.401739 
" clip-path="url(#padab209a50)" style="fill: none; stroke-dasharray: 4.44,1.92; stroke-dashoffset: 0; stroke: #666666; stroke-width: 1.2"/>
    <defs>
     <path id="m0256b6b5f0" d="M -2 2 
L 2 2 
L 2 -2 
L -2 -2 
z
" style="stroke: #666666; stroke-linejoin: miter"/>
    </defs>
    <g clip-path="url(#padab209a50)">
     <use xlink:href="#m0256b6b5f0" x="51.470943" y="25.401739" style="fill: #ffffff; stroke: #666666; stroke-linejoin: miter"/>
     <use xlink:href="#m0256b6b5f0" x="113.556909" y="25.401739" style="fill: #ffffff; stroke: #666666; stroke-linejoin: miter"/>
     <use xlink:href="#m0256b6b5f0" x="175.642875" y="25.401739" style="fill: #ffffff; stroke: #666666; stroke-linejoin: miter"/>
     <use xlink:href="#m0256b6b5f0" x="237.728841" y="25.401739" style="fill: #ffffff; stroke: #666666; stroke-linejoin: miter"/>
     <use xlink:href="#m0256b6b5f0" x="299.814807" y="25.401739" style="fill: #ffffff; stroke: #666666; stroke-linejoin: miter"/>
    </g>
   </g>
   <g id="line2d_14">
    <path d="M 51.470943 25.401739 
L 113.556909 25.401739 
L 113.556909 25.401739 
L 175.642875 25.401739 
L 175.642875 25.401739 
L 237.728841 25.401739 
L 237.728841 25.401739 
L 299.814807 25.401739 
L 299.814807 25.401739 
" clip-path="url(#padab209a50)" style="fill: none; stroke: #666666; stroke-width: 1.2; stroke-linecap: square"/>
    <defs>
     <path id="m9e3d3b316a" d="M 0 -2 
L -2 2 
L 2 2 
z
" style="stroke: #666666; stroke-linejoin: miter"/>
    </defs>
    <g clip-path="url(#padab209a50)">
     <use xlink:href="#m9e3d3b316a" x="51.470943" y="25.401739" style="fill: #ffffff; stroke: #666666; stroke-linejoin: miter"/>
     <use xlink:href="#m9e3d3b316a" x="113.556909" y="25.401739" style="fill: #ffffff; stroke: #666666; stroke-linejoin: miter"/>
     <use xlink:href="#m9e3d3b316a" x="175.642875" y="25.401739" style="fill: #ffffff; stroke: #666666; stroke-linejoin: miter"/>
     <use xlink:href="#m9e3d3b316a" x="237.728841" y="25.401739" style="fill: #ffffff; stroke: #666666; stroke-linejoin: miter"/>
     <use xlink:href="#m9e3d3b316a" x="299.814807" y="25.401739" style="fill: #ffffff; stroke: #666666; stroke-linejoin: miter"/>
    </g>
   </g>
   <g id="line2d_15">
    <path d="M 51.470943 25.401739 
L 113.556909 25.401739 
L 113.556909 25.401739 
L 175.642875 25.401739 
L 175.642875 25.401739 
L 237.728841 25.401739 
L 237.728841 25.401739 
L 299.814807 25.401739 
L 299.814807 25.401739 
" clip-path="url(#padab209a50)" style="fill: none; stroke-dasharray: 1.2,1.98; stroke-dashoffset: 0; stroke: #000000; stroke-width: 1.2"/>
    <defs>
     <path id="mbdac2036e5" d="M -0 2.5 
L 2.5 -2.5 
L -2.5 -2.5 
z
" style="stroke: #000000; stroke-linejoin: miter"/>
    </defs>
    <g clip-path="url(#padab209a50)">
     <use xlink:href="#mbdac2036e5" x="51.470943" y="25.401739" style="fill: #ffffff; stroke: #000000; stroke-linejoin: miter"/>
     <use xlink:href="#mbdac2036e5" x="113.556909" y="25.401739" style="fill: #ffffff; stroke: #000000; stroke-linejoin: miter"/>
     <use xlink:href="#mbdac2036e5" x="175.642875" y="25.401739" style="fill: #ffffff; stroke: #000000; stroke-linejoin: miter"/>
     <use xlink:href="#mbdac2036e5" x="237.728841" y="25.401739" style="fill: #ffffff; stroke: #000000; stroke-linejoin: miter"/>
     <use xlink:href="#mbdac2036e5" x="299.814807" y="25.401739" style="fill: #ffffff; stroke: #000000; stroke-linejoin: miter"/>
    </g>
   </g>
   <g id="line2d_16">
    <path d="M 51.470943 25.401739 
L 113.556909 25.401739 
L 113.556909 25.401739 
L 175.642875 25.401739 
L 175.642875 25.401739 
L 237.728841 25.401739 
L 237.728841 116.410435 
L 299.814807 116.410435 
L 299.814807 161.914783 
" clip-path="url(#padab209a50)" style="fill: none; stroke-dasharray: 4.44,1.92; stroke-dashoffset: 0; stroke: #000000; stroke-width: 1.2"/>
    <defs>
     <path id="md3002da90a" d="M 0 2.828427 
L 2.828427 0 
L 0 -2.828427 
L -2.828427 0 
z
" style="stroke: #000000; stroke-linejoin: miter"/>
    </defs>
    <g clip-path="url(#padab209a50)">
     <use xlink:href="#md3002da90a" x="51.470943" y="25.401739" style="fill: #ffffff; stroke: #000000; stroke-linejoin: miter"/>
     <use xlink:href="#md3002da90a" x="113.556909" y="25.401739" style="fill: #ffffff; stroke: #000000; stroke-linejoin: miter"/>
     <use xlink:href="#md3002da90a" x="175.642875" y="25.401739" style="fill: #ffffff; stroke: #000000; stroke-linejoin: miter"/>
     <use xlink:href="#md3002da90a" x="237.728841" y="116.410435" style="fill: #ffffff; stroke: #000000; stroke-linejoin: miter"/>
     <use xlink:href="#md3002da90a" x="299.814807" y="161.914783" style="fill: #ffffff; stroke: #000000; stroke-linejoin: miter"/>
    </g>
   </g>
   <g id="line2d_17">
    <path d="M 51.470943 25.401739 
L 113.556909 25.401739 
L 113.556909 161.914783 
L 175.642875 161.914783 
L 175.642875 207.41913 
L 237.728841 207.41913 
L 237.728841 207.41913 
L 299.814807 207.41913 
L 299.814807 207.41913 
" clip-path="url(#padab209a50)" style="fill: none; stroke: #000000; stroke-width: 1.2; stroke-linecap: square"/>
    <defs>
     <path id="m5dddd700b3" d="M -1.25 2.5 
L 0 1.25 
L 1.25 2.5 
L 2.5 1.25 
L 1.25 0 
L 2.5 -1.25 
L 1.25 -2.5 
L 0 -1.25 
L -1.25 -2.5 
L -2.5 -1.25 
L -1.25 0 
L -2.5 1.25 
z
" style="stroke: #000000; stroke-linejoin: miter"/>
    </defs>
    <g clip-path="url(#padab209a50)">
     <use xlink:href="#m5dddd700b3" x="51.470943" y="25.401739" style="fill: #ffffff; stroke: #000000; stroke-linejoin: miter"/>
     <use xlink:href="#m5dddd700b3" x="113.556909" y="161.914783" style="fill: #ffffff; stroke: #000000; stroke-linejoin: miter"/>
     <use xlink:href="#m5dddd700b3" x="175.642875" y="207.41913" style="fill: #ffffff; stroke: #000000; stroke-linejoin: miter"/>
     <use xlink:href="#m5dddd700b3" x="237.728841" y="207.41913" style="fill: #ffffff; stroke: #000000; stroke-linejoin: miter"/>
     <use xlink:href="#m5dddd700b3" x="299.814807" y="207.41913" style="fill: #ffffff; stroke: #000000; stroke-linejoin: miter"/>
    </g>
   </g>
   <g id="patch_3">
    <path d="M 39.05375 216.52 
L 39.05375 7.2 
" style="fill: none; stroke: #000000; stroke-width: 0.8; stroke-linejoin: miter; stroke-linecap: square"/>
   </g>
   <g id="patch_4">
    <path d="M 39.05375 216.52 
L 312.232 216.52 
" style="fill: none; stroke: #000000; stroke-width: 0.8; stroke-linejoin: miter; stroke-linecap: square"/>
   </g>
   <g id="text_14">
    <!-- $\bf{Log-rank\ test}$ -->
    <g transform="translate(52.712663 182.360587)">
     <text>
      <tspan style="font: 700 7px 'DejaVu Sans'" x="0 4.460449 9.269531 15.644043 22.873047 26.325195 31.048828 36.032227 42.960426 46.306618 51.054176 55.22068" y="-0.6875">Log−ranktest</tspan>
     </text>
    </g>
    <!-- $IP_{high}$ vs. Control: $P = 0.0006$ -->
    <g transform="translate(52.712663 190.200587)">
     <text>
      <tspan style="font: oblique 7px 'DejaVu Sans'" x="0 2.064453 56.449463" y="-0.796875">IPP</tspan>
      <tspan style="font: oblique 4.9px 'DejaVu Sans'" x="6.285645 9.391211 10.752588 13.862939" y="0.3515625">high</tspan>
      <tspan style="font: 7px 'Arial'" x="17.159912 19.104736 22.604736 26.104736 28.049561 29.994385 35.049561 38.942627 42.835693 44.780518 47.111572 51.004639 52.559814 54.504639" y="-0.796875"> vs. Control: </tspan>
      <tspan style="font: 7px 'DejaVu Sans'" x="62.034424 69.263428 73.717041 75.942139 80.395752 84.849365 89.302979" y="-0.796875">=0.0006</tspan>
     </text>
    </g>
    <!-- IP vs. PO Routes: $P = 0.0073$ -->
    <g transform="translate(52.712663 198.38315)">
     <text>
      <tspan style="font: 7px 'Arial'" x="0 1.944824 6.61377 8.558594 12.058594 15.558594 17.503418 19.448242 24.117188 29.562012 31.506836 36.562012 40.455078 44.348145 46.292969 50.186035 53.686035 55.630859" y="-0.796875">IP vs. PO Routes: </tspan>
      <tspan style="font: oblique 7px 'DejaVu Sans'" x="57.575684" y="-0.796875">P</tspan>
      <tspan style="font: 7px 'DejaVu Sans'" x="63.160645 70.389648 74.843262 77.068359 81.521973 85.975586 90.429199" y="-0.796875">=0.0073</tspan>
     </text>
    </g>
   </g>
   <g id="legend_1">
    <g id="text_15">
     <text style="font: 8px 'Arial', 'Helvetica', 'DejaVu Sans', sans-serif; text-anchor: start" x="340.130018" y="19.32375" transform="rotate(-0 340.130018 19.32375)">Groups</text>
    </g>
    <g id="line2d_18">
     <path d="M 323.995565 26.974219 
L 330.995565 26.974219 
L 330.995565 26.974219 
L 337.995565 26.974219 
L 337.995565 26.974219 
" style="fill: none; stroke: #000000; stroke-width: 2; stroke-linecap: square"/>
    </g>
    <g id="text_16">
     <text style="font: 7px 'Arial', 'Helvetica', 'DejaVu Sans', sans-serif; text-anchor: start" x="343.595565" y="29.424219" transform="rotate(-0 343.595565 29.424219)">Control</text>
    </g>
    <g id="line2d_19">
     <path d="M 323.995565 36.965625 
L 330.995565 36.965625 
L 330.995565 36.965625 
L 337.995565 36.965625 
L 337.995565 36.965625 
" style="fill: none; stroke-dasharray: 1.2,1.98; stroke-dashoffset: 0; stroke: #666666; stroke-width: 1.2"/>
     <g>
      <use xlink:href="#m0e6d8067d7" x="330.995565" y="36.965625" style="fill: #ffffff; stroke: #666666"/>
     </g>
    </g>
    <g id="text_17">
     <text style="font: 7px 'Arial', 'Helvetica', 'DejaVu Sans', sans-serif; text-anchor: start" x="343.595565" y="39.415625" transform="rotate(-0 343.595565 39.415625)">PO_low</text>
    </g>
    <g id="line2d_20">
     <path d="M 323.995565 46.957031 
L 330.995565 46.957031 
L 330.995565 46.957031 
L 337.995565 46.957031 
L 337.995565 46.957031 
" style="fill: none; stroke-dasharray: 4.44,1.92; stroke-dashoffset: 0; stroke: #666666; stroke-width: 1.2"/>
     <g>
      <use xlink:href="#m0256b6b5f0" x="330.995565" y="46.957031" style="fill: #ffffff; stroke: #666666; stroke-linejoin: miter"/>
     </g>
    </g>
    <g id="text_18">
     <text style="font: 7px 'Arial', 'Helvetica', 'DejaVu Sans', sans-serif; text-anchor: start" x="343.595565" y="49.407031" transform="rotate(-0 343.595565 49.407031)">PO_medium</text>
    </g>
    <g id="line2d_21">
     <path d="M 323.995565 56.948437 
L 330.995565 56.948437 
L 330.995565 56.948437 
L 337.995565 56.948437 
L 337.995565 56.948437 
" style="fill: none; stroke: #666666; stroke-width: 1.2; stroke-linecap: square"/>
     <g>
      <use xlink:href="#m9e3d3b316a" x="330.995565" y="56.948437" style="fill: #ffffff; stroke: #666666; stroke-linejoin: miter"/>
     </g>
    </g>
    <g id="text_19">
     <text style="font: 7px 'Arial', 'Helvetica', 'DejaVu Sans', sans-serif; text-anchor: start" x="343.595565" y="59.398438" transform="rotate(-0 343.595565 59.398438)">PO_high</text>
    </g>
    <g id="line2d_22">
     <path d="M 323.995565 66.932187 
L 330.995565 66.932187 
L 330.995565 66.932187 
L 337.995565 66.932187 
L 337.995565 66.932187 
" style="fill: none; stroke-dasharray: 1.2,1.98; stroke-dashoffset: 0; stroke: #000000; stroke-width: 1.2"/>
     <g>
      <use xlink:href="#mbdac2036e5" x="330.995565" y="66.932187" style="fill: #ffffff; stroke: #000000; stroke-linejoin: miter"/>
     </g>
    </g>
    <g id="text_20">
     <text style="font: 7px 'Arial', 'Helvetica', 'DejaVu Sans', sans-serif; text-anchor: start" x="343.595565" y="69.382187" transform="rotate(-0 343.595565 69.382187)">IP_low</text>
    </g>
    <g id="line2d_23">
     <path d="M 323.995565 76.833906 
L 330.995565 76.833906 
L 330.995565 76.833906 
L 337.995565 76.833906 
L 337.995565 76.833906 
" style="fill: none; stroke-dasharray: 4.44,1.92; stroke-dashoffset: 0; stroke: #000000; stroke-width: 1.2"/>
     <g>
      <use xlink:href="#md3002da90a" x="330.995565" y="76.833906" style="fill: #ffffff; stroke: #000000; stroke-linejoin: miter"/>
     </g>
    </g>
    <g id="text_21">
     <text style="font: 7px 'Arial', 'Helvetica', 'DejaVu Sans', sans-serif; text-anchor: start" x="343.595565" y="79.283906" transform="rotate(-0 343.595565 79.283906)">IP_medium</text>
    </g>
    <g id="line2d_24">
     <path d="M 323.995565 86.735625 
L 330.995565 86.735625 
L 330.995565 86.735625 
L 337.995565 86.735625 
L 337.995565 86.735625 
" style="fill: none; stroke: #000000; stroke-width: 1.2; stroke-linecap: square"/>
     <g>
      <use xlink:href="#m5dddd700b3" x="330.995565" y="86.735625" style="fill: #ffffff; stroke: #000000; stroke-linejoin: miter"/>
     </g>
    </g>
    <g id="text_22">
     <text style="font: 7px 'Arial', 'Helvetica', 'DejaVu Sans', sans-serif; text-anchor: start" x="343.595565" y="89.185625" transform="rotate(-0 343.595565 89.185625)">IP_high</text>
    </g>
   </g>
   <g id="line2d_25">
    <path d="M 51.470943 25.401739 
L 113.556909 25.401739 
L 113.556909 25.401739 
L 175.642875 25.401739 
L 175.642875 25.401739 
L 237.728841 25.401739 
L 237.728841 25.401739 
L 299.814807 25.401739 
L 299.814807 25.401739 
" clip-path="url(#padab209a50)" style="fill: none; stroke: #000000; stroke-width: 2; stroke-linecap: square"/>
   </g>
  </g>
 </g>
 <defs>
  <clipPath id="padab209a50">
   <rect x="39.05375" y="7.2" width="273.17825" height="209.32"/>
  </clipPath>
 </defs>
</svg>
