<?xml version="1.0" encoding="utf-8" standalone="no"?>
<!DOCTYPE svg PUBLIC "-//W3C//DTD SVG 1.1//EN"
  "http://www.w3.org/Graphics/SVG/1.1/DTD/svg11.dtd">
<svg xmlns:xlink="http://www.w3.org/1999/xlink" width="282.019219pt" height="213.54375pt" viewBox="0 0 282.019219 213.54375" xmlns="http://www.w3.org/2000/svg" version="1.1">
 <metadata>
  <rdf:RDF xmlns:dc="http://purl.org/dc/elements/1.1/" xmlns:cc="http://creativecommons.org/ns#" xmlns:rdf="http://www.w3.org/1999/02/22-rdf-syntax-ns#">
   <cc:Work>
    <dc:type rdf:resource="http://purl.org/dc/dcmitype/StillImage"/>
    <dc:date>2026-05-18T08:42:06.754887</dc:date>
    <dc:format>image/svg+xml</dc:format>
    <dc:creator>
     <cc:Agent>
      <dc:title>Matplotlib v3.9.4, https://matplotlib.org/</dc:title>
     </cc:Agent>
    </dc:creator>
   </cc:Work>
  </rdf:RDF>
 </metadata>
 <defs>
  <style type="text/css">*{stroke-linejoin: round; stroke-linecap: butt}</style>
 </defs>
 <g id="figure_1">
  <g id="patch_1">
   <path d="M 0 213.54375 
L 282.019219 213.54375 
L 282.019219 0 
L 0 0 
z
" style="fill: #ffffff"/>
  </g>
  <g id="axes_1">
   <g id="patch_2">
    <path d="M 39.05375 180.52 
L 199.21 180.52 
L 199.21 7.2 
L 39.05375 7.2 
z
" style="fill: #ffffff"/>
   </g>
   <g id="matplotlib.axis_1">
    <g id="xtick_1">
     <g id="line2d_1">
      <defs>
       <path id="m893ea37c33" d="M 0 0 
L 0 3.5 
" style="stroke: #000000; stroke-width: 0.8"/>
      </defs>
      <g>
       <use xlink:href="#m893ea37c33" x="46.33358" y="180.52" style="stroke: #000000; stroke-width: 0.8"/>
      </g>
     </g>
     <g id="text_1">
      <text style="font: 8px 'Arial', 'Helvetica', 'DejaVu Sans', sans-serif; text-anchor: middle" x="46.33358" y="193.24625" transform="rotate(-0 46.33358 193.24625)">0</text>
     </g>
    </g>
    <g id="xtick_2">
     <g id="line2d_2">
      <g>
       <use xlink:href="#m893ea37c33" x="82.732727" y="180.52" style="stroke: #000000; stroke-width: 0.8"/>
      </g>
     </g>
     <g id="text_2">
      <text style="font: 8px 'Arial', 'Helvetica', 'DejaVu Sans', sans-serif; text-anchor: middle" x="82.732727" y="193.24625" transform="rotate(-0 82.732727 193.24625)">1</text>
     </g>
    </g>
    <g id="xtick_3">
     <g id="line2d_3">
      <g>
       <use xlink:href="#m893ea37c33" x="119.131875" y="180.52" style="stroke: #000000; stroke-width: 0.8"/>
      </g>
     </g>
     <g id="text_3">
      <text style="font: 8px 'Arial', 'Helvetica', 'DejaVu Sans', sans-serif; text-anchor: middle" x="119.131875" y="193.24625" transform="rotate(-0 119.131875 193.24625)">2</text>
     </g>
    </g>
    <g id="xtick_4">
     <g id="line2d_4">
      <g>
       <use xlink:href="#m893ea37c33" x="155.531023" y="180.52" style="stroke: #000000; stroke-width: 0.8"/>
      </g>
     </g>
     <g id="text_4">
      <text style="font: 8px 'Arial', 'Helvetica', 'DejaVu Sans', sans-serif; text-anchor: middle" x="155.531023" y="193.24625" transform="rotate(-0 155.531023 193.24625)">3</text>
     </g>
    </g>
    <g id="xtick_5">
     <g id="line2d_5">
      <g>
       <use xlink:href="#m893ea37c33" x="191.93017" y="180.52" style="stroke: #000000; stroke-width: 0.8"/>
      </g>
     </g>
     <g id="text_5">
      <text style="font: 8px 'Arial', 'Helvetica', 'DejaVu Sans', sans-serif; text-anchor: middle" x="191.93017" y="193.24625" transform="rotate(-0 191.93017 193.24625)">4</text>
     </g>
    </g>
    <g id="text_6">
     <text style="font: 8px 'Arial', 'Helvetica', 'DejaVu Sans', sans-serif; text-anchor: middle" x="119.131875" y="204.66" transform="rotate(-0 119.131875 204.66)">Time (Days)</text>
    </g>
   </g>
   <g id="matplotlib.axis_2">
    <g id="ytick_1">
     <g id="line2d_6">
      <defs>
       <path id="m397f5d8281" d="M 0 0 
L -3.5 0 
" style="stroke: #000000; stroke-width: 0.8"/>
      </defs>
      <g>
       <use xlink:href="#m397f5d8281" x="39.05375" y="180.52" style="stroke: #000000; stroke-width: 0.8"/>
      </g>
     </g>
     <g id="text_7">
      <text style="font: 8px 'Arial', 'Helvetica', 'DejaVu Sans', sans-serif; text-anchor: end" x="32.05375" y="183.383125" transform="rotate(-0 32.05375 183.383125)">0</text>
     </g>
    </g>
    <g id="ytick_2">
     <g id="line2d_7">
      <g>
       <use xlink:href="#m397f5d8281" x="39.05375" y="147.506667" style="stroke: #000000; stroke-width: 0.8"/>
      </g>
     </g>
     <g id="text_8">
      <text style="font: 8px 'Arial', 'Helvetica', 'DejaVu Sans', sans-serif; text-anchor: end" x="32.05375" y="150.369792" transform="rotate(-0 32.05375 150.369792)">20</text>
     </g>
    </g>
    <g id="ytick_3">
     <g id="line2d_8">
      <g>
       <use xlink:href="#m397f5d8281" x="39.05375" y="114.493333" style="stroke: #000000; stroke-width: 0.8"/>
      </g>
     </g>
     <g id="text_9">
      <text style="font: 8px 'Arial', 'Helvetica', 'DejaVu Sans', sans-serif; text-anchor: end" x="32.05375" y="117.356458" transform="rotate(-0 32.05375 117.356458)">40</text>
     </g>
    </g>
    <g id="ytick_4">
     <g id="line2d_9">
      <g>
       <use xlink:href="#m397f5d8281" x="39.05375" y="81.48" style="stroke: #000000; stroke-width: 0.8"/>
      </g>
     </g>
     <g id="text_10">
      <text style="font: 8px 'Arial', 'Helvetica', 'DejaVu Sans', sans-serif; text-anchor: end" x="32.05375" y="84.343125" transform="rotate(-0 32.05375 84.343125)">60</text>
     </g>
    </g>
    <g id="ytick_5">
     <g id="line2d_10">
      <g>
       <use xlink:href="#m397f5d8281" x="39.05375" y="48.466667" style="stroke: #000000; stroke-width: 0.8"/>
      </g>
     </g>
     <g id="text_11">
      <text style="font: 8px 'Arial', 'Helvetica', 'DejaVu Sans', sans-serif; text-anchor: end" x="32.05375" y="51.329792" transform="rotate(-0 32.05375 51.329792)">80</text>
     </g>
    </g>
    <g id="ytick_6">
     <g id="line2d_11">
      <g>
       <use xlink:href="#m397f5d8281" x="39.05375" y="15.453333" style="stroke: #000000; stroke-width: 0.8"/>
      </g>
     </g>
     <g id="text_12">
      <text style="font: 8px 'Arial', 'Helvetica', 'DejaVu Sans', sans-serif; text-anchor: end" x="32.05375" y="18.316458" transform="rotate(-0 32.05375 18.316458)">100</text>
     </g>
    </g>
    <g id="text_13">
     <text style="font: 8px 'Arial', 'Helvetica', 'DejaVu Sans', sans-serif; text-anchor: middle" x="13.02375" y="93.86" transform="rotate(-90 13.02375 93.86)">Survival Rate (%)</text>
    </g>
   </g>
   <g id="line2d_12">
    <path d="M 46.33358 15.453333 
L 82.732727 15.453333 
L 82.732727 15.453333 
L 119.131875 15.453333 
L 119.131875 15.453333 
L 155.531023 15.453333 
L 155.531023 15.453333 
L 191.93017 15.453333 
L 191.93017 15.453333 
" clip-path="url(#p0ecc1b0e66)" style="fill: none; stroke: #333333; stroke-width: 1.5; stroke-linecap: square"/>
   </g>
   <g id="line2d_13">
    <path d="M 46.33358 15.453333 
L 82.732727 15.453333 
L 82.732727 15.453333 
L 119.131875 15.453333 
L 119.131875 15.453333 
L 155.531023 15.453333 
L 155.531023 15.453333 
L 191.93017 15.453333 
L 191.93017 56.72 
" clip-path="url(#p0ecc1b0e66)" style="fill: none; stroke-dasharray: 1.2,1.98; stroke-dashoffset: 0; stroke: #1f77b4; stroke-width: 1.2"/>
   </g>
   <g id="line2d_14">
    <path d="M 46.33358 15.453333 
L 82.732727 15.453333 
L 82.732727 15.453333 
L 119.131875 15.453333 
L 119.131875 15.453333 
L 155.531023 15.453333 
L 155.531023 15.453333 
L 191.93017 15.453333 
L 191.93017 15.453333 
" clip-path="url(#p0ecc1b0e66)" style="fill: none; stroke-dasharray: 4.44,1.92; stroke-dashoffset: 0; stroke: #1f77b4; stroke-width: 1.2"/>
   </g>
   <g id="line2d_15">
    <path d="M 46.33358 15.453333 
L 82.732727 15.453333 
L 82.732727 15.453333 
L 119.131875 15.453333 
L 119.131875 15.453333 
L 155.531023 15.453333 
L 155.531023 15.453333 
L 191.93017 15.453333 
L 191.93017 15.453333 
" clip-path="url(#p0ecc1b0e66)" style="fill: none; stroke: #1f77b4; stroke-width: 1.2; stroke-linecap: square"/>
   </g>
   <g id="line2d_16">
    <path d="M 46.33358 15.453333 
L 82.732727 15.453333 
L 82.732727 15.453333 
L 119.131875 15.453333 
L 119.131875 15.453333 
L 155.531023 15.453333 
L 155.531023 15.453333 
L 191.93017 15.453333 
L 191.93017 15.453333 
" clip-path="url(#p0ecc1b0e66)" style="fill: none; stroke-dasharray: 1.2,1.98; stroke-dashoffset: 0; stroke: #d62728; stroke-width: 1.2"/>
   </g>
   <g id="line2d_17">
    <path d="M 46.33358 15.453333 
L 82.732727 15.453333 
L 82.732727 15.453333 
L 119.131875 15.453333 
L 119.131875 15.453333 
L 155.531023 15.453333 
L 155.531023 97.986667 
L 191.93017 97.986667 
L 191.93017 139.253333 
" clip-path="url(#p0ecc1b0e66)" style="fill: none; stroke-dasharray: 4.44,1.92; stroke-dashoffset: 0; stroke: #d62728; stroke-width: 1.2"/>
   </g>
   <g id="line2d_18">
    <path d="M 46.33358 15.453333 
L 82.732727 15.453333 
L 82.732727 139.253333 
L 119.131875 139.253333 
L 119.131875 180.52 
L 155.531023 180.52 
L 155.531023 180.52 
L 191.93017 180.52 
L 191.93017 180.52 
" clip-path="url(#p0ecc1b0e66)" style="fill: none; stroke: #d62728; stroke-width: 1.2; stroke-linecap: square"/>
   </g>
   <g id="patch_3">
    <path d="M 39.05375 180.52 
L 39.05375 7.2 
" style="fill: none; stroke: #000000; stroke-width: 0.8; stroke-linejoin: miter; stroke-linecap: square"/>
   </g>
   <g id="patch_4">
    <path d="M 39.05375 180.52 
L 199.21 180.52 
" style="fill: none; stroke: #000000; stroke-width: 0.8; stroke-linejoin: miter; stroke-linecap: square"/>
   </g>
   <g id="legend_1">
    <g id="line2d_19">
     <path d="M 213.517813 16.060469 
L 220.517813 16.060469 
L 220.517813 16.060469 
L 227.517813 16.060469 
L 227.517813 16.060469 
" style="fill: none; stroke: #333333; stroke-width: 1.5; stroke-linecap: square"/>
    </g>
    <g id="text_14">
     <text style="font: 7px 'Arial', 'Helvetica', 'DejaVu Sans', sans-serif; text-anchor: start" x="233.117813" y="18.510469" transform="rotate(-0 233.117813 18.510469)">Control</text>
    </g>
    <g id="line2d_20">
     <path d="M 213.517813 26.051875 
L 220.517813 26.051875 
L 220.517813 26.051875 
L 227.517813 26.051875 
L 227.517813 26.051875 
" style="fill: none; stroke-dasharray: 1.2,1.98; stroke-dashoffset: 0; stroke: #1f77b4; stroke-width: 1.2"/>
    </g>
    <g id="text_15">
     <text style="font: 7px 'Arial', 'Helvetica', 'DejaVu Sans', sans-serif; text-anchor: start" x="233.117813" y="28.501875" transform="rotate(-0 233.117813 28.501875)">PO_low</text>
    </g>
    <g id="line2d_21">
     <path d="M 213.517813 36.043281 
L 220.517813 36.043281 
L 220.517813 36.043281 
L 227.517813 36.043281 
L 227.517813 36.043281 
" style="fill: none; stroke-dasharray: 4.44,1.92; stroke-dashoffset: 0; stroke: #1f77b4; stroke-width: 1.2"/>
    </g>
    <g id="text_16">
     <text style="font: 7px 'Arial', 'Helvetica', 'DejaVu Sans', sans-serif; text-anchor: start" x="233.117813" y="38.493281" transform="rotate(-0 233.117813 38.493281)">PO_medium</text>
    </g>
    <g id="line2d_22">
     <path d="M 213.517813 46.034688 
L 220.517813 46.034688 
L 220.517813 46.034688 
L 227.517813 46.034688 
L 227.517813 46.034688 
" style="fill: none; stroke: #1f77b4; stroke-width: 1.2; stroke-linecap: square"/>
    </g>
    <g id="text_17">
     <text style="font: 7px 'Arial', 'Helvetica', 'DejaVu Sans', sans-serif; text-anchor: start" x="233.117813" y="48.484688" transform="rotate(-0 233.117813 48.484688)">PO_high</text>
    </g>
    <g id="line2d_23">
     <path d="M 213.517813 56.018438 
L 220.517813 56.018438 
L 220.517813 56.018438 
L 227.517813 56.018438 
L 227.517813 56.018438 
" style="fill: none; stroke-dasharray: 1.2,1.98; stroke-dashoffset: 0; stroke: #d62728; stroke-width: 1.2"/>
    </g>
    <g id="text_18">
     <text style="font: 7px 'Arial', 'Helvetica', 'DejaVu Sans', sans-serif; text-anchor: start" x="233.117813" y="58.468438" transform="rotate(-0 233.117813 58.468438)">IP_low</text>
    </g>
    <g id="line2d_24">
     <path d="M 213.517813 65.920156 
L 220.517813 65.920156 
L 220.517813 65.920156 
L 227.517813 65.920156 
L 227.517813 65.920156 
" style="fill: none; stroke-dasharray: 4.44,1.92; stroke-dashoffset: 0; stroke: #d62728; stroke-width: 1.2"/>
    </g>
    <g id="text_19">
     <text style="font: 7px 'Arial', 'Helvetica', 'DejaVu Sans', sans-serif; text-anchor: start" x="233.117813" y="68.370156" transform="rotate(-0 233.117813 68.370156)">IP_medium</text>
    </g>
    <g id="line2d_25">
     <path d="M 213.517813 75.821875 
L 220.517813 75.821875 
L 220.517813 75.821875 
L 227.517813 75.821875 
L 227.517813 75.821875 
" style="fill: none; stroke: #d62728; stroke-width: 1.2; stroke-linecap: square"/>
    </g>
    <g id="text_20">
     <text style="font: 7px 'Arial', 'Helvetica', 'DejaVu Sans', sans-serif; text-anchor: start" x="233.117813" y="78.271875" transform="rotate(-0 233.117813 78.271875)">IP_high</text>
    </g>
   </g>
  </g>
 </g>
 <defs>
  <clipPath id="p0ecc1b0e66">
   <rect x="39.05375" y="7.2" width="160.15625" height="173.32"/>
  </clipPath>
 </defs>
</svg>
