<?xml version="1.0" encoding="utf-8" standalone="no"?>
<!DOCTYPE svg PUBLIC "-//W3C//DTD SVG 1.1//EN"
  "http://www.w3.org/Graphics/SVG/1.1/DTD/svg11.dtd">
<svg xmlns:xlink="http://www.w3.org/1999/xlink" width="281.905156pt" height="213.526875pt" viewBox="0 0 281.905156 213.526875" xmlns="http://www.w3.org/2000/svg" version="1.1">
 <metadata>
  <rdf:RDF xmlns:dc="http://purl.org/dc/elements/1.1/" xmlns:cc="http://creativecommons.org/ns#" xmlns:rdf="http://www.w3.org/1999/02/22-rdf-syntax-ns#">
   <cc:Work>
    <dc:type rdf:resource="http://purl.org/dc/dcmitype/StillImage"/>
    <dc:date>2026-05-18T08:39:39.314363</dc:date>
    <dc:format>image/svg+xml</dc:format>
    <dc:creator>
     <cc:Agent>
      <dc:title>Matplotlib v3.9.4, https://matplotlib.org/</dc:title>
     </cc:Agent>
    </dc:creator>
   </cc:Work>
  </rdf:RDF>
 </metadata>
 <defs>
  <style type="text/css">*{stroke-linejoin: round; stroke-linecap: butt}</style>
 </defs>
 <g id="figure_1">
  <g id="patch_1">
   <path d="M 0 213.526875 
L 281.905156 213.526875 
L 281.905156 0 
L 0 0 
z
" style="fill: #ffffff"/>
  </g>
  <g id="axes_1">
   <g id="patch_2">
    <path d="M 36.63625 180.503125 
L 198.98625 180.503125 
L 198.98625 10.063125 
L 36.63625 10.063125 
z
" style="fill: #ffffff"/>
   </g>
   <g id="matplotlib.axis_1">
    <g id="xtick_1">
     <g id="line2d_1">
      <defs>
       <path id="m5ed08968a4" d="M 0 0 
L 0 3.5 
" style="stroke: #000000; stroke-width: 0.8"/>
      </defs>
      <g>
       <use xlink:href="#m5ed08968a4" x="44.015795" y="180.503125" style="stroke: #000000; stroke-width: 0.8"/>
      </g>
     </g>
     <g id="text_1">
      <text style="font: 8px 'Arial', 'Helvetica', 'DejaVu Sans', sans-serif; text-anchor: middle" x="44.015795" y="193.229375" transform="rotate(-0 44.015795 193.229375)">0</text>
     </g>
    </g>
    <g id="xtick_2">
     <g id="line2d_2">
      <g>
       <use xlink:href="#m5ed08968a4" x="80.913523" y="180.503125" style="stroke: #000000; stroke-width: 0.8"/>
      </g>
     </g>
     <g id="text_2">
      <text style="font: 8px 'Arial', 'Helvetica', 'DejaVu Sans', sans-serif; text-anchor: middle" x="80.913523" y="193.229375" transform="rotate(-0 80.913523 193.229375)">1</text>
     </g>
    </g>
    <g id="xtick_3">
     <g id="line2d_3">
      <g>
       <use xlink:href="#m5ed08968a4" x="117.81125" y="180.503125" style="stroke: #000000; stroke-width: 0.8"/>
      </g>
     </g>
     <g id="text_3">
      <text style="font: 8px 'Arial', 'Helvetica', 'DejaVu Sans', sans-serif; text-anchor: middle" x="117.81125" y="193.229375" transform="rotate(-0 117.81125 193.229375)">2</text>
     </g>
    </g>
    <g id="xtick_4">
     <g id="line2d_4">
      <g>
       <use xlink:href="#m5ed08968a4" x="154.708977" y="180.503125" style="stroke: #000000; stroke-width: 0.8"/>
      </g>
     </g>
     <g id="text_4">
      <text style="font: 8px 'Arial', 'Helvetica', 'DejaVu Sans', sans-serif; text-anchor: middle" x="154.708977" y="193.229375" transform="rotate(-0 154.708977 193.229375)">3</text>
     </g>
    </g>
    <g id="xtick_5">
     <g id="line2d_5">
      <g>
       <use xlink:href="#m5ed08968a4" x="191.606705" y="180.503125" style="stroke: #000000; stroke-width: 0.8"/>
      </g>
     </g>
     <g id="text_5">
      <text style="font: 8px 'Arial', 'Helvetica', 'DejaVu Sans', sans-serif; text-anchor: middle" x="191.606705" y="193.229375" transform="rotate(-0 191.606705 193.229375)">4</text>
     </g>
    </g>
    <g id="text_6">
     <text style="font: 8px 'Arial', 'Helvetica', 'DejaVu Sans', sans-serif; text-anchor: middle" x="117.81125" y="204.643125" transform="rotate(-0 117.81125 204.643125)">Time (Days)</text>
    </g>
   </g>
   <g id="matplotlib.axis_2">
    <g id="ytick_1">
     <g id="line2d_6">
      <defs>
       <path id="m6e808f1406" d="M 0 0 
L -3.5 0 
" style="stroke: #000000; stroke-width: 0.8"/>
      </defs>
      <g>
       <use xlink:href="#m6e808f1406" x="36.63625" y="180.503125" style="stroke: #000000; stroke-width: 0.8"/>
      </g>
     </g>
     <g id="text_7">
      <text style="font: 8px 'Arial', 'Helvetica', 'DejaVu Sans', sans-serif; text-anchor: end" x="29.63625" y="183.36625" transform="rotate(-0 29.63625 183.36625)">0.0</text>
     </g>
    </g>
    <g id="ytick_2">
     <g id="line2d_7">
      <g>
       <use xlink:href="#m6e808f1406" x="36.63625" y="161.565347" style="stroke: #000000; stroke-width: 0.8"/>
      </g>
     </g>
     <g id="text_8">
      <text style="font: 8px 'Arial', 'Helvetica', 'DejaVu Sans', sans-serif; text-anchor: end" x="29.63625" y="164.428472" transform="rotate(-0 29.63625 164.428472)">0.5</text>
     </g>
    </g>
    <g id="ytick_3">
     <g id="line2d_8">
      <g>
       <use xlink:href="#m6e808f1406" x="36.63625" y="142.627569" style="stroke: #000000; stroke-width: 0.8"/>
      </g>
     </g>
     <g id="text_9">
      <text style="font: 8px 'Arial', 'Helvetica', 'DejaVu Sans', sans-serif; text-anchor: end" x="29.63625" y="145.490694" transform="rotate(-0 29.63625 145.490694)">1.0</text>
     </g>
    </g>
    <g id="ytick_4">
     <g id="line2d_9">
      <g>
       <use xlink:href="#m6e808f1406" x="36.63625" y="123.689792" style="stroke: #000000; stroke-width: 0.8"/>
      </g>
     </g>
     <g id="text_10">
      <text style="font: 8px 'Arial', 'Helvetica', 'DejaVu Sans', sans-serif; text-anchor: end" x="29.63625" y="126.552917" transform="rotate(-0 29.63625 126.552917)">1.5</text>
     </g>
    </g>
    <g id="ytick_5">
     <g id="line2d_10">
      <g>
       <use xlink:href="#m6e808f1406" x="36.63625" y="104.752014" style="stroke: #000000; stroke-width: 0.8"/>
      </g>
     </g>
     <g id="text_11">
      <text style="font: 8px 'Arial', 'Helvetica', 'DejaVu Sans', sans-serif; text-anchor: end" x="29.63625" y="107.615139" transform="rotate(-0 29.63625 107.615139)">2.0</text>
     </g>
    </g>
    <g id="ytick_6">
     <g id="line2d_11">
      <g>
       <use xlink:href="#m6e808f1406" x="36.63625" y="85.814236" style="stroke: #000000; stroke-width: 0.8"/>
      </g>
     </g>
     <g id="text_12">
      <text style="font: 8px 'Arial', 'Helvetica', 'DejaVu Sans', sans-serif; text-anchor: end" x="29.63625" y="88.677361" transform="rotate(-0 29.63625 88.677361)">2.5</text>
     </g>
    </g>
    <g id="ytick_7">
     <g id="line2d_12">
      <g>
       <use xlink:href="#m6e808f1406" x="36.63625" y="66.876458" style="stroke: #000000; stroke-width: 0.8"/>
      </g>
     </g>
     <g id="text_13">
      <text style="font: 8px 'Arial', 'Helvetica', 'DejaVu Sans', sans-serif; text-anchor: end" x="29.63625" y="69.739583" transform="rotate(-0 29.63625 69.739583)">3.0</text>
     </g>
    </g>
    <g id="ytick_8">
     <g id="line2d_13">
      <g>
       <use xlink:href="#m6e808f1406" x="36.63625" y="47.938681" style="stroke: #000000; stroke-width: 0.8"/>
      </g>
     </g>
     <g id="text_14">
      <text style="font: 8px 'Arial', 'Helvetica', 'DejaVu Sans', sans-serif; text-anchor: end" x="29.63625" y="50.801806" transform="rotate(-0 29.63625 50.801806)">3.5</text>
     </g>
    </g>
    <g id="ytick_9">
     <g id="line2d_14">
      <g>
       <use xlink:href="#m6e808f1406" x="36.63625" y="29.000903" style="stroke: #000000; stroke-width: 0.8"/>
      </g>
     </g>
     <g id="text_15">
      <text style="font: 8px 'Arial', 'Helvetica', 'DejaVu Sans', sans-serif; text-anchor: end" x="29.63625" y="31.864028" transform="rotate(-0 29.63625 31.864028)">4.0</text>
     </g>
    </g>
    <g id="ytick_10">
     <g id="line2d_15">
      <g>
       <use xlink:href="#m6e808f1406" x="36.63625" y="10.063125" style="stroke: #000000; stroke-width: 0.8"/>
      </g>
     </g>
     <g id="text_16">
      <text style="font: 8px 'Arial', 'Helvetica', 'DejaVu Sans', sans-serif; text-anchor: end" x="29.63625" y="12.92625" transform="rotate(-0 29.63625 12.92625)">4.5</text>
     </g>
    </g>
    <g id="text_17">
     <text style="font: 8px 'Arial', 'Helvetica', 'DejaVu Sans', sans-serif; text-anchor: middle" x="12.92625" y="95.283125" transform="rotate(-90 12.92625 95.283125)">Survival Count</text>
    </g>
   </g>
   <g id="line2d_16">
    <path d="M 44.015795 66.876458 
L 80.913523 66.876458 
L 80.913523 66.876458 
L 117.81125 66.876458 
L 117.81125 66.876458 
L 154.708977 66.876458 
L 154.708977 66.876458 
L 191.606705 66.876458 
L 191.606705 66.876458 
" clip-path="url(#p820c7f4a5f)" style="fill: none; stroke: #333333; stroke-width: 1.2; stroke-linecap: square"/>
   </g>
   <g id="line2d_17">
    <path d="M 44.015795 29.000903 
L 80.913523 29.000903 
L 80.913523 29.000903 
L 117.81125 29.000903 
L 117.81125 29.000903 
L 154.708977 29.000903 
L 154.708977 29.000903 
L 191.606705 29.000903 
L 191.606705 29.000903 
" clip-path="url(#p820c7f4a5f)" style="fill: none; stroke: #333333; stroke-width: 1.2; stroke-linecap: square"/>
   </g>
   <g id="line2d_18">
    <path d="M 44.015795 29.000903 
L 80.913523 29.000903 
L 80.913523 29.000903 
L 117.81125 29.000903 
L 117.81125 29.000903 
L 154.708977 29.000903 
L 154.708977 29.000903 
L 191.606705 29.000903 
L 191.606705 66.876458 
" clip-path="url(#p820c7f4a5f)" style="fill: none; stroke-dasharray: 1.2,1.98; stroke-dashoffset: 0; stroke: #1f77b4; stroke-width: 1.2"/>
   </g>
   <g id="line2d_19">
    <path d="M 44.015795 29.000903 
L 80.913523 29.000903 
L 80.913523 29.000903 
L 117.81125 29.000903 
L 117.81125 29.000903 
L 154.708977 29.000903 
L 154.708977 29.000903 
L 191.606705 29.000903 
L 191.606705 29.000903 
" clip-path="url(#p820c7f4a5f)" style="fill: none; stroke-dasharray: 4.44,1.92; stroke-dashoffset: 0; stroke: #1f77b4; stroke-width: 1.2"/>
   </g>
   <g id="line2d_20">
    <path d="M 44.015795 29.000903 
L 80.913523 29.000903 
L 80.913523 29.000903 
L 117.81125 29.000903 
L 117.81125 29.000903 
L 154.708977 29.000903 
L 154.708977 29.000903 
L 191.606705 29.000903 
L 191.606705 29.000903 
" clip-path="url(#p820c7f4a5f)" style="fill: none; stroke: #1f77b4; stroke-width: 1.2; stroke-linecap: square"/>
   </g>
   <g id="line2d_21">
    <path d="M 44.015795 29.000903 
L 80.913523 29.000903 
L 80.913523 29.000903 
L 117.81125 29.000903 
L 117.81125 29.000903 
L 154.708977 29.000903 
L 154.708977 29.000903 
L 191.606705 29.000903 
L 191.606705 29.000903 
" clip-path="url(#p820c7f4a5f)" style="fill: none; stroke-dasharray: 1.2,1.98; stroke-dashoffset: 0; stroke: #d62728; stroke-width: 1.2"/>
   </g>
   <g id="line2d_22">
    <path d="M 44.015795 29.000903 
L 80.913523 29.000903 
L 80.913523 29.000903 
L 117.81125 29.000903 
L 117.81125 29.000903 
L 154.708977 29.000903 
L 154.708977 104.752014 
L 191.606705 104.752014 
L 191.606705 142.627569 
" clip-path="url(#p820c7f4a5f)" style="fill: none; stroke-dasharray: 4.44,1.92; stroke-dashoffset: 0; stroke: #d62728; stroke-width: 1.2"/>
   </g>
   <g id="line2d_23">
    <path d="M 44.015795 29.000903 
L 80.913523 29.000903 
L 80.913523 142.627569 
L 117.81125 142.627569 
L 117.81125 180.503125 
L 154.708977 180.503125 
L 154.708977 180.503125 
L 191.606705 180.503125 
L 191.606705 180.503125 
" clip-path="url(#p820c7f4a5f)" style="fill: none; stroke: #d62728; stroke-width: 1.2; stroke-linecap: square"/>
   </g>
   <g id="patch_3">
    <path d="M 36.63625 180.503125 
L 36.63625 10.063125 
" style="fill: none; stroke: #000000; stroke-width: 0.8; stroke-linejoin: miter; stroke-linecap: square"/>
   </g>
   <g id="patch_4">
    <path d="M 36.63625 180.503125 
L 198.98625 180.503125 
" style="fill: none; stroke: #000000; stroke-width: 0.8; stroke-linejoin: miter; stroke-linecap: square"/>
   </g>
   <g id="legend_1">
    <g id="line2d_24">
     <path d="M 213.40375 19.008906 
L 220.40375 19.008906 
L 220.40375 19.008906 
L 227.40375 19.008906 
L 227.40375 19.008906 
" style="fill: none; stroke: #333333; stroke-width: 1.2; stroke-linecap: square"/>
    </g>
    <g id="text_18">
     <text style="font: 7px 'Arial', 'Helvetica', 'DejaVu Sans', sans-serif; text-anchor: start" x="233.00375" y="21.458906" transform="rotate(-0 233.00375 21.458906)">CRL_1</text>
    </g>
    <g id="line2d_25">
     <path d="M 213.40375 28.995937 
L 220.40375 28.995937 
L 220.40375 28.995937 
L 227.40375 28.995937 
L 227.40375 28.995937 
" style="fill: none; stroke: #333333; stroke-width: 1.2; stroke-linecap: square"/>
    </g>
    <g id="text_19">
     <text style="font: 7px 'Arial', 'Helvetica', 'DejaVu Sans', sans-serif; text-anchor: start" x="233.00375" y="31.445937" transform="rotate(-0 233.00375 31.445937)">CRL_2</text>
    </g>
    <g id="line2d_26">
     <path d="M 213.40375 38.987344 
L 220.40375 38.987344 
L 220.40375 38.987344 
L 227.40375 38.987344 
L 227.40375 38.987344 
" style="fill: none; stroke-dasharray: 1.2,1.98; stroke-dashoffset: 0; stroke: #1f77b4; stroke-width: 1.2"/>
    </g>
    <g id="text_20">
     <text style="font: 7px 'Arial', 'Helvetica', 'DejaVu Sans', sans-serif; text-anchor: start" x="233.00375" y="41.437344" transform="rotate(-0 233.00375 41.437344)">PO_low</text>
    </g>
    <g id="line2d_27">
     <path d="M 213.40375 48.97875 
L 220.40375 48.97875 
L 220.40375 48.97875 
L 227.40375 48.97875 
L 227.40375 48.97875 
" style="fill: none; stroke-dasharray: 4.44,1.92; stroke-dashoffset: 0; stroke: #1f77b4; stroke-width: 1.2"/>
    </g>
    <g id="text_21">
     <text style="font: 7px 'Arial', 'Helvetica', 'DejaVu Sans', sans-serif; text-anchor: start" x="233.00375" y="51.42875" transform="rotate(-0 233.00375 51.42875)">PO_medium</text>
    </g>
    <g id="line2d_28">
     <path d="M 213.40375 58.970156 
L 220.40375 58.970156 
L 220.40375 58.970156 
L 227.40375 58.970156 
L 227.40375 58.970156 
" style="fill: none; stroke: #1f77b4; stroke-width: 1.2; stroke-linecap: square"/>
    </g>
    <g id="text_22">
     <text style="font: 7px 'Arial', 'Helvetica', 'DejaVu Sans', sans-serif; text-anchor: start" x="233.00375" y="61.420156" transform="rotate(-0 233.00375 61.420156)">PO_high</text>
    </g>
    <g id="line2d_29">
     <path d="M 213.40375 68.953906 
L 220.40375 68.953906 
L 220.40375 68.953906 
L 227.40375 68.953906 
L 227.40375 68.953906 
" style="fill: none; stroke-dasharray: 1.2,1.98; stroke-dashoffset: 0; stroke: #d62728; stroke-width: 1.2"/>
    </g>
    <g id="text_23">
     <text style="font: 7px 'Arial', 'Helvetica', 'DejaVu Sans', sans-serif; text-anchor: start" x="233.00375" y="71.403906" transform="rotate(-0 233.00375 71.403906)">IP_low</text>
    </g>
    <g id="line2d_30">
     <path d="M 213.40375 78.855625 
L 220.40375 78.855625 
L 220.40375 78.855625 
L 227.40375 78.855625 
L 227.40375 78.855625 
" style="fill: none; stroke-dasharray: 4.44,1.92; stroke-dashoffset: 0; stroke: #d62728; stroke-width: 1.2"/>
    </g>
    <g id="text_24">
     <text style="font: 7px 'Arial', 'Helvetica', 'DejaVu Sans', sans-serif; text-anchor: start" x="233.00375" y="81.305625" transform="rotate(-0 233.00375 81.305625)">IP_medium</text>
    </g>
    <g id="line2d_31">
     <path d="M 213.40375 88.757344 
L 220.40375 88.757344 
L 220.40375 88.757344 
L 227.40375 88.757344 
L 227.40375 88.757344 
" style="fill: none; stroke: #d62728; stroke-width: 1.2; stroke-linecap: square"/>
    </g>
    <g id="text_25">
     <text style="font: 7px 'Arial', 'Helvetica', 'DejaVu Sans', sans-serif; text-anchor: start" x="233.00375" y="91.207344" transform="rotate(-0 233.00375 91.207344)">IP_high</text>
    </g>
   </g>
  </g>
 </g>
 <defs>
  <clipPath id="p820c7f4a5f">
   <rect x="36.63625" y="10.063125" width="162.35" height="170.44"/>
  </clipPath>
 </defs>
</svg>
